<?xml version="1.0" standalone="no"?>
<!DOCTYPE svg PUBLIC "-//W3C//DTD SVG 20010904//EN"
 "http://www.w3.org/TR/2001/REC-SVG-20010904/DTD/svg10.dtd">
<svg version="1.0" xmlns="http://www.w3.org/2000/svg"
 width="823.000000pt" height="169.000000pt" viewBox="0 0 823.000000 169.000000"
 preserveAspectRatio="xMidYMid meet">

<g transform="translate(0.000000,169.000000) scale(0.100000,-0.100000)"
fill="#000000" stroke="none">
<path d="M6255 1683 c-300 -42 -470 -244 -435 -518 14 -109 43 -177 107 -246
74 -79 182 -132 423 -205 198 -60 291 -102 324 -147 25 -33 34 -138 16 -191
-28 -86 -138 -136 -301 -136 -104 0 -175 16 -230 52 -49 33 -88 117 -96 206
l-6 72 -113 0 -114 0 0 -215 0 -216 48 -20 c75 -32 209 -69 317 -86 151 -24
383 -14 490 20 183 60 283 166 320 342 18 88 19 142 0 229 -28 131 -102 219
-246 292 -37 18 -156 61 -265 95 -286 88 -340 119 -365 211 -19 74 11 166 66
202 48 31 144 49 235 43 47 -3 101 -11 121 -16 91 -27 141 -94 161 -214 l11
-67 108 0 109 0 0 209 0 208 -72 21 c-125 36 -194 52 -295 67 -91 14 -247 18
-318 8z"/>
<path d="M7040 1550 l0 -110 65 0 65 0 0 -590 0 -590 -65 0 -65 0 0 -110 0
-110 308 2 307 3 3 108 3 107 -86 0 -85 0 0 219 0 218 158 6 c230 9 331 41
440 142 123 114 169 283 127 464 -30 127 -112 229 -233 290 -113 57 -149 61
-564 61 l-378 0 0 -110z m731 -137 c40 -21 60 -39 77 -69 54 -99 49 -253 -10
-335 -44 -61 -98 -81 -235 -87 l-113 -5 0 262 0 261 113 0 c104 0 118 -2 168
-27z"/>
<path d="M313 1546 c-110 -36 -196 -115 -248 -229 -51 -112 -60 -165 -59 -332
0 -135 3 -158 27 -232 47 -141 128 -241 237 -292 48 -23 68 -26 155 -26 79 0
109 5 145 21 60 27 107 69 143 124 l29 45 -5 -140 c-7 -216 -43 -297 -154
-351 -53 -26 -68 -29 -163 -29 -90 0 -112 3 -153 24 -55 27 -103 86 -113 137
-6 33 -7 34 -55 34 l-49 0 0 -114 0 -114 82 -26 c100 -31 195 -46 303 -46 244
0 400 101 468 303 20 59 21 84 25 590 l3 527 60 0 59 0 0 55 0 55 -155 0 -155
0 0 -82 0 -82 -28 45 c-35 55 -83 96 -142 122 -57 26 -197 33 -257 13z m262
-125 c119 -55 165 -176 165 -431 0 -301 -86 -440 -273 -440 -114 0 -194 67
-232 193 -42 138 -42 369 -1 504 23 75 73 143 125 170 57 30 157 31 216 4z"/>
<path d="M1835 1555 c-5 -2 -28 -9 -51 -14 -61 -16 -130 -67 -174 -129 l-40
-55 0 86 0 87 -186 0 -185 0 3 -52 3 -53 88 -3 87 -3 0 -424 0 -424 -82 -3
-83 -3 -3 -52 -3 -53 285 0 286 0 0 55 0 55 -106 0 -105 0 3 313 c3 299 4 314
27 370 24 62 71 116 123 143 35 18 142 30 181 20 46 -11 84 -53 98 -107 l13
-50 51 3 50 3 0 135 0 135 -65 12 c-61 11 -192 16 -215 8z"/>
<path d="M3937 1540 c-73 -23 -118 -57 -162 -123 l-35 -52 0 83 0 82 -155 0
-155 0 0 -55 0 -55 65 0 65 0 0 -640 0 -640 -65 0 -65 0 0 -55 0 -55 221 0
220 0 -3 53 -3 52 -62 3 -63 3 0 242 0 242 35 -52 c45 -67 90 -100 166 -124
107 -33 231 -19 319 36 90 57 176 196 205 330 19 90 19 270 0 360 -29 137
-113 272 -206 331 -86 54 -216 68 -322 34z m204 -135 c51 -37 101 -123 120
-208 9 -38 14 -121 14 -212 -1 -126 -4 -161 -23 -221 -46 -150 -119 -214 -241
-214 -123 1 -199 61 -242 193 -22 65 -24 90 -24 252 0 162 2 187 24 252 27 84
76 147 135 175 32 14 59 18 118 16 66 -3 82 -7 119 -33z"/>
<path d="M5025 1546 c-159 -38 -275 -150 -336 -323 -30 -84 -38 -292 -15 -396
45 -202 183 -348 364 -386 168 -35 338 12 448 125 99 101 154 253 154 429 0
340 -200 568 -495 564 -38 0 -93 -6 -120 -13z m246 -117 c58 -33 104 -96 131
-182 20 -64 23 -93 23 -252 0 -159 -3 -188 -23 -252 -29 -93 -73 -151 -141
-186 -60 -30 -126 -35 -196 -16 -61 17 -136 99 -164 180 -50 146 -50 401 0
546 26 78 92 155 152 177 61 23 163 15 218 -15z"/>
<path d="M2272 1478 l3 -53 58 -3 57 -3 0 -317 c0 -340 7 -416 46 -503 31 -69
72 -110 139 -141 41 -18 68 -23 150 -23 88 0 107 3 157 27 61 28 129 91 158
148 l19 35 1 -92 0 -93 155 0 155 0 0 55 0 55 -60 0 -60 0 0 480 0 480 -150 0
-150 0 0 -55 0 -55 56 0 56 0 -4 -307 c-5 -341 -10 -374 -71 -455 -46 -61
-104 -88 -191 -88 -102 0 -150 26 -185 99 l-26 56 -3 403 -3 402 -155 0 -155
0 3 -52z"/>
</g>
</svg>
